<?xml version="1.0" standalone="no"?>
<!DOCTYPE svg PUBLIC "-//W3C//DTD SVG 20010904//EN"
 "http://www.w3.org/TR/2001/REC-SVG-20010904/DTD/svg10.dtd">
<svg version="1.0" xmlns="http://www.w3.org/2000/svg"
 width="256.000000pt" height="81.000000pt" viewBox="0 0 256.000000 81.000000"
 preserveAspectRatio="xMidYMid meet">
<metadata>
Created by potrace 1.16, written by Peter Selinger 2001-2019
</metadata>
<g transform="translate(0.000000,81.000000) scale(0.100000,-0.100000)"
fill="#000000" stroke="none">
<path d="M938 698 c-79 -17 -98 -24 -98 -38 0 -13 11 -19 45 -24 l45 -7 0 -49
0 -49 43 -12 c49 -13 163 -7 195 10 18 9 22 21 22 56 0 26 5 45 11 45 6 0 10
-18 9 -42 -3 -67 -2 -70 23 -66 20 3 22 7 19 56 -3 43 0 56 15 67 28 21 8 32
-101 55 -115 23 -104 24 -228 -2z"/>
<path d="M1732 578 c-7 -7 -12 -19 -12 -28 0 -9 5 -21 12 -28 9 -9 9 -12 0
-12 -9 0 -12 -33 -12 -120 l0 -120 45 0 45 0 0 120 c0 76 -4 120 -10 120 -7 0
-7 6 0 20 22 42 -34 82 -68 48z"/>
<path d="M1375 512 c-11 -2 -26 -9 -32 -14 -9 -7 -13 -7 -13 1 0 8 -15 11 -42
9 l-43 -3 -3 -142 -3 -143 46 0 c43 0 45 1 45 30 0 27 2 30 19 20 35 -18 79
-12 112 18 26 23 33 38 37 80 2 30 -1 64 -8 81 -18 45 -69 72 -115 63z"/>
<path d="M1646 513 c-4 -4 -34 -6 -67 -5 l-59 3 0 -120 0 -121 45 0 44 0 3 78
3 77 36 -2 c32 -2 37 1 48 34 7 19 9 39 5 43 -14 13 -50 21 -58 13z"/>
<path d="M1967 513 c-4 -3 -34 -5 -67 -4 l-60 2 0 -121 0 -120 45 0 45 0 0 74
c0 53 4 77 15 86 30 25 45 -5 45 -86 l0 -74 45 0 45 0 0 90 c0 84 -2 91 -27
119 -27 28 -74 47 -86 34z"/>
<path d="M2110 361 c0 -53 4 -93 11 -96 6 -4 26 -4 45 -1 l34 7 0 89 c0 89 -6
104 -30 75 -12 -14 -15 -14 -30 0 -9 8 -20 15 -23 15 -4 0 -7 -40 -7 -89z"/>
</g>
</svg>
